# Blender 5.0.0
# www.blender.org
mtllib shelf.mtl
o shelf
v -0.121580 -0.685181 -0.089728
v -0.121580 -0.685181 0.089728
v 0.121580 -0.685181 -0.089728
v 0.121580 -0.685181 0.089728
v 0.121580 0.685181 -0.089728
v 0.121580 0.685181 0.089728
v -0.121580 0.685181 -0.089728
v -0.121580 0.685181 0.089728
v 0.121580 -0.336124 0.053837
v 0.121580 0.336124 0.053837
v -0.121580 -0.336124 0.053837
v -0.121580 0.336124 0.053837
v -0.121580 0.336124 -0.089728
v 0.121580 0.336124 -0.089728
v 0.121580 -0.314589 0.053837
v 0.121580 0.314589 0.053837
v 0.121580 -0.314589 -0.089728
v 0.121580 0.314589 -0.089728
v -0.121580 -0.314589 0.053837
v -0.121580 0.314589 0.053837
v 0.121580 -0.010767 0.053837
v 0.121580 0.010767 0.053837
v 0.121580 -0.010767 -0.089728
v 0.121580 0.010767 -0.089728
v -0.121580 -0.010767 0.053837
v -0.121580 0.010767 0.053837
v -0.121580 -0.010767 -0.089728
v -0.121580 0.010767 -0.089728
v 0.121580 -0.336124 -0.089728
v -0.121580 -0.336124 -0.089728
v -0.121580 -0.314589 -0.089728
v -0.121580 0.314589 -0.089728
v 0.121580 -0.586458 0.053837
v -0.121580 -0.586458 0.053837
v 0.121580 0.586458 0.053837
v -0.121580 0.586458 0.053837
v 0.121580 0.685181 0.185438
v -0.121580 0.685181 0.185438
v 0.121580 0.586458 0.185438
v -0.121580 0.586458 0.185438
v -0.121580 -0.685181 0.185438
v 0.121580 -0.685181 0.185438
v 0.121580 -0.586458 0.185438
v -0.121580 -0.586458 0.185438
v -0.121580 -0.704323 -0.108870
v -0.121580 -0.704323 0.089728
v 0.121580 -0.704323 -0.108870
v 0.121580 -0.704323 0.089728
v 0.121580 -0.336124 0.072979
v -0.121580 -0.336124 0.072979
v 0.121580 -0.336124 -0.108870
v -0.121580 -0.336124 -0.108870
v 0.121580 -0.567316 0.072979
v -0.121580 -0.567316 0.072979
v -0.121580 -0.704323 0.204580
v 0.121580 -0.704323 0.204580
v 0.121580 -0.567316 0.204580
v -0.121580 -0.567316 0.204580
v 0.121580 0.704323 -0.108870
v 0.121580 0.704323 0.089728
v -0.121580 0.704323 -0.108870
v -0.121580 0.704323 0.089728
v 0.121580 0.336124 0.072979
v -0.121580 0.336124 0.072979
v -0.121580 0.336124 -0.108870
v 0.121580 0.336124 -0.108870
v 0.121580 0.314589 0.072979
v -0.121580 0.314589 0.072979
v 0.121580 0.567316 0.072979
v -0.121580 0.567316 0.072979
v 0.121580 0.704323 0.204580
v -0.121580 0.704323 0.204580
v 0.121580 0.567316 0.204580
v -0.121580 0.567316 0.204580
v 0.121580 -0.010767 -0.108870
v 0.121580 0.010767 -0.108870
v -0.121580 -0.010767 -0.108870
v -0.121580 0.010767 -0.108870
v 0.121580 -0.314589 -0.108870
v 0.121580 -0.336124 -0.108870
v -0.121580 -0.336124 -0.108870
v -0.121580 -0.314589 -0.108870
v 0.121580 0.314589 -0.108870
v 0.121580 0.010767 -0.108870
v -0.121580 0.010767 -0.108870
v -0.121580 0.314589 -0.108870
v 0.121580 -0.314589 -0.108870
v 0.121580 -0.010767 -0.108870
v -0.121580 -0.010767 -0.108870
v -0.121580 -0.314589 -0.108870
v 0.121580 0.314589 0.072979
v -0.121580 0.314589 0.072979
v 0.121580 0.010767 0.072979
v -0.121580 0.010767 0.072979
v 0.121580 -0.314589 0.072979
v -0.121580 -0.314589 0.072979
v 0.121580 -0.010767 0.072979
v -0.121580 -0.010767 0.072979
v -0.121580 0.336124 -0.108870
v 0.121580 0.336124 -0.108870
v 0.121580 0.314589 -0.108870
v -0.121580 0.314589 -0.108870
v 0.121580 -0.010767 0.072979
v 0.121580 0.010767 0.072979
v -0.121580 -0.010767 0.072979
v -0.121580 0.010767 0.072979
v 0.121580 -0.336124 0.072979
v -0.121580 -0.336124 0.072979
v 0.121580 -0.314589 0.072979
v -0.121580 -0.314589 0.072979
vn -0.0000 -1.0000 -0.0000
vn 1.0000 -0.0000 -0.0000
vn -0.0000 1.0000 -0.0000
vn -0.0000 -0.0000 -1.0000
vn -0.0000 -0.0000 1.0000
vn -1.0000 -0.0000 -0.0000
vt 1.000000 1.000000
vt 0.000000 0.000000
vt 1.000000 0.000000
vt 0.510686 0.000000
vt 0.489314 1.000000
vt 0.489314 0.000000
vt 0.000000 0.489314
vt 1.000000 0.510686
vt 0.000000 0.510686
vt 1.000000 0.294118
vt 0.000000 0.086505
vt 1.000000 0.086505
vt 0.000000 0.705882
vt 1.000000 0.705882
vt 0.000000 0.913495
vt 1.000000 0.913495
vt 0.510686 1.000000
vt 0.000000 0.294118
vt 1.000000 0.318339
vt 0.294118 1.000000
vt 0.318339 0.000000
vt 0.318339 1.000000
vt 0.000000 0.318339
vt 1.000000 0.489314
vt 1.000000 0.681661
vt 0.000000 0.681661
vt 0.705882 0.000000
vt 0.681661 1.000000
vt 0.681661 0.000000
vt 0.000000 1.000000
vt 0.294118 0.000000
vt 0.705882 1.000000
s 1
usemtl Mat.1
f 48/1/1 45/2/1 47/3/1
f 24/4/2 21/5/2 23/6/2
f 62/1/3 59/2/3 61/3/3
f 78/7/4 75/8/4 77/9/4
f 49/10/5 54/11/5 53/12/5
f 47/1/4 52/13/4 51/14/4
f 71/1/5 74/15/5 73/16/5
f 26/5/6 27/4/6 25/17/6
f 61/2/4 66/10/4 65/18/4
f 81/18/4 79/19/4 80/10/4
f 9/20/2 17/21/2 15/22/2
f 86/23/4 84/24/4 85/7/4
f 89/9/4 87/25/4 90/26/4
f 91/25/5 94/9/5 93/8/5
f 97/24/5 96/23/5 95/19/5
f 14/27/2 16/28/2 18/29/2
f 100/14/4 102/26/4 99/13/4
f 106/3/5 103/30/5 104/1/5
f 23/24/3 25/7/3 21/24/3
f 28/9/1 22/8/1 26/9/1
f 107/3/5 110/30/5 108/1/5
f 31/23/1 15/19/1 19/23/1
f 30/18/2 19/23/2 11/18/2
f 29/10/3 11/18/3 9/10/3
f 64/3/5 67/30/5 63/1/5
f 18/25/3 20/26/3 16/25/3
f 13/13/1 10/14/1 12/13/1
f 32/26/2 12/13/2 20/26/2
f 55/2/5 57/12/5 58/11/5
f 64/13/5 69/16/5 70/15/5
f 73/16/1 70/15/1 69/16/1
f 58/11/3 53/12/3 54/11/3
f 72/30/3 60/1/3 62/30/3
f 56/3/1 46/2/1 48/3/1
f 2/3/3 3/30/3 1/2/3
f 11/3/4 33/30/4 34/2/4
f 1/3/5 29/30/5 30/2/5
f 42/3/4 44/30/4 43/2/4
f 43/3/1 34/30/1 33/2/1
f 41/3/3 4/30/3 2/2/3
f 48/1/2 3/3/2 4/1/2
f 1/2/6 46/30/6 2/30/6
f 9/10/2 53/12/2 33/12/2
f 50/18/3 9/10/3 11/18/3
f 54/11/6 11/18/6 34/11/6
f 51/14/3 30/13/3 29/14/3
f 3/1/2 51/14/2 29/14/2
f 52/13/6 1/30/6 30/13/6
f 55/2/6 44/11/6 41/2/6
f 57/12/2 42/3/2 43/12/2
f 44/11/6 54/11/6 34/11/6
f 53/12/2 43/12/2 33/12/2
f 42/3/2 48/3/2 4/3/2
f 46/2/6 41/2/6 2/2/6
f 6/3/1 7/30/1 5/2/1
f 38/3/4 39/30/4 40/2/4
f 5/3/5 13/30/5 14/2/5
f 20/3/4 10/30/4 16/2/4
f 10/3/4 36/30/4 35/2/4
f 40/3/3 35/30/3 36/2/3
f 37/3/1 8/30/1 6/2/1
f 62/1/6 7/3/6 8/1/6
f 5/2/2 60/30/2 6/30/2
f 71/1/2 39/16/2 37/1/2
f 74/15/6 38/30/6 40/15/6
f 65/18/1 14/10/1 13/18/1
f 7/2/6 65/18/6 13/18/6
f 66/10/2 5/3/2 14/10/2
f 63/1/2 16/30/2 10/1/2
f 68/2/6 12/3/6 20/2/6
f 67/30/1 20/2/1 16/30/1
f 12/13/6 70/15/6 36/15/6
f 69/16/2 10/14/2 35/16/2
f 39/16/2 69/16/2 35/16/2
f 70/15/6 40/15/6 36/15/6
f 38/30/6 62/30/6 8/30/6
f 60/1/2 37/1/2 6/1/2
f 24/3/5 27/30/5 23/2/5
f 77/9/1 23/8/1 27/9/1
f 78/7/6 27/9/6 28/7/6
f 76/24/3 28/7/3 24/24/3
f 75/8/2 24/24/2 23/8/2
f 31/3/5 29/30/5 17/2/5
f 80/10/2 17/19/2 29/10/2
f 81/18/1 29/10/1 30/18/1
f 82/23/6 30/18/6 31/23/6
f 79/19/3 31/23/3 17/19/3
f 18/3/5 28/30/5 24/2/5
f 85/7/1 24/24/1 28/7/1
f 86/23/6 28/7/6 32/23/6
f 83/19/3 32/23/3 18/19/3
f 84/24/2 18/19/2 24/24/2
f 23/3/5 31/30/5 17/2/5
f 90/26/1 17/25/1 31/26/1
f 89/9/6 31/26/6 27/9/6
f 88/8/3 27/9/3 23/8/3
f 87/25/2 23/8/2 17/25/2
f 20/3/4 22/30/4 26/2/4
f 93/8/1 26/9/1 22/8/1
f 91/25/2 22/8/2 16/25/2
f 92/26/3 16/25/3 20/26/3
f 94/9/6 20/26/6 26/9/6
f 25/3/4 15/30/4 19/2/4
f 95/19/1 19/23/1 15/19/1
f 97/24/2 15/19/2 21/24/2
f 98/7/3 21/24/3 25/7/3
f 96/23/6 25/7/6 19/23/6
f 18/3/5 13/30/5 32/2/5
f 99/13/6 32/26/6 13/13/6
f 100/14/3 13/13/3 14/14/3
f 101/25/2 14/14/2 18/25/2
f 102/26/1 18/25/1 32/26/1
f 25/3/4 22/30/4 21/2/4
f 104/1/2 21/30/2 22/1/2
f 106/3/3 22/1/3 26/3/3
f 105/2/6 26/3/6 25/2/6
f 103/30/1 25/2/1 21/30/1
f 15/3/4 11/30/4 19/2/4
f 108/1/6 19/30/6 11/1/6
f 107/3/1 11/1/1 9/3/1
f 109/2/2 9/3/2 15/2/2
f 110/30/3 15/2/3 19/30/3
f 48/1/1 46/30/1 45/2/1
f 24/4/2 22/17/2 21/5/2
f 62/1/3 60/30/3 59/2/3
f 78/7/4 76/24/4 75/8/4
f 49/10/5 50/18/5 54/11/5
f 47/1/4 45/30/4 52/13/4
f 71/1/5 72/30/5 74/15/5
f 26/5/6 28/6/6 27/4/6
f 61/2/4 59/3/4 66/10/4
f 81/18/4 82/23/4 79/19/4
f 9/20/2 29/31/2 17/21/2
f 86/23/4 83/19/4 84/24/4
f 89/9/4 88/8/4 87/25/4
f 91/25/5 92/26/5 94/9/5
f 97/24/5 98/7/5 96/23/5
f 14/27/2 10/32/2 16/28/2
f 100/14/4 101/25/4 102/26/4
f 106/3/5 105/2/5 103/30/5
f 23/24/3 27/7/3 25/7/3
f 28/9/1 24/8/1 22/8/1
f 107/3/5 109/2/5 110/30/5
f 31/23/1 17/19/1 15/19/1
f 30/18/2 31/23/2 19/23/2
f 29/10/3 30/18/3 11/18/3
f 64/3/5 68/2/5 67/30/5
f 18/25/3 32/26/3 20/26/3
f 13/13/1 14/14/1 10/14/1
f 32/26/2 13/13/2 12/13/2
f 55/2/5 56/3/5 57/12/5
f 64/13/5 63/14/5 69/16/5
f 73/16/1 74/15/1 70/15/1
f 58/11/3 57/12/3 53/12/3
f 72/30/3 71/1/3 60/1/3
f 56/3/1 55/2/1 46/2/1
f 2/3/3 4/1/3 3/30/3
f 11/3/4 9/1/4 33/30/4
f 1/3/5 3/1/5 29/30/5
f 42/3/4 41/1/4 44/30/4
f 43/3/1 44/1/1 34/30/1
f 41/3/3 42/1/3 4/30/3
f 48/1/2 47/3/2 3/3/2
f 1/2/6 45/2/6 46/30/6
f 9/10/2 49/10/2 53/12/2
f 50/18/3 49/10/3 9/10/3
f 54/11/6 50/18/6 11/18/6
f 51/14/3 52/13/3 30/13/3
f 3/1/2 47/1/2 51/14/2
f 52/13/6 45/30/6 1/30/6
f 55/2/6 58/11/6 44/11/6
f 57/12/2 56/3/2 42/3/2
f 44/11/6 58/11/6 54/11/6
f 53/12/2 57/12/2 43/12/2
f 42/3/2 56/3/2 48/3/2
f 46/2/6 55/2/6 41/2/6
f 6/3/1 8/1/1 7/30/1
f 38/3/4 37/1/4 39/30/4
f 5/3/5 7/1/5 13/30/5
f 20/3/4 12/1/4 10/30/4
f 10/3/4 12/1/4 36/30/4
f 40/3/3 39/1/3 35/30/3
f 37/3/1 38/1/1 8/30/1
f 62/1/6 61/3/6 7/3/6
f 5/2/2 59/2/2 60/30/2
f 71/1/2 73/16/2 39/16/2
f 74/15/6 72/30/6 38/30/6
f 65/18/1 66/10/1 14/10/1
f 7/2/6 61/2/6 65/18/6
f 66/10/2 59/3/2 5/3/2
f 63/1/2 67/30/2 16/30/2
f 68/2/6 64/3/6 12/3/6
f 67/30/1 68/2/1 20/2/1
f 12/13/6 64/13/6 70/15/6
f 69/16/2 63/14/2 10/14/2
f 39/16/2 73/16/2 69/16/2
f 70/15/6 74/15/6 40/15/6
f 38/30/6 72/30/6 62/30/6
f 60/1/2 71/1/2 37/1/2
f 24/3/5 28/1/5 27/30/5
f 77/9/1 75/8/1 23/8/1
f 78/7/6 77/9/6 27/9/6
f 76/24/3 78/7/3 28/7/3
f 75/8/2 76/24/2 24/24/2
f 31/3/5 30/1/5 29/30/5
f 80/10/2 79/19/2 17/19/2
f 81/18/1 80/10/1 29/10/1
f 82/23/6 81/18/6 30/18/6
f 79/19/3 82/23/3 31/23/3
f 18/3/5 32/1/5 28/30/5
f 85/7/1 84/24/1 24/24/1
f 86/23/6 85/7/6 28/7/6
f 83/19/3 86/23/3 32/23/3
f 84/24/2 83/19/2 18/19/2
f 23/3/5 27/1/5 31/30/5
f 90/26/1 87/25/1 17/25/1
f 89/9/6 90/26/6 31/26/6
f 88/8/3 89/9/3 27/9/3
f 87/25/2 88/8/2 23/8/2
f 20/3/4 16/1/4 22/30/4
f 93/8/1 94/9/1 26/9/1
f 91/25/2 93/8/2 22/8/2
f 92/26/3 91/25/3 16/25/3
f 94/9/6 92/26/6 20/26/6
f 25/3/4 21/1/4 15/30/4
f 95/19/1 96/23/1 19/23/1
f 97/24/2 95/19/2 15/19/2
f 98/7/3 97/24/3 21/24/3
f 96/23/6 98/7/6 25/7/6
f 18/3/5 14/1/5 13/30/5
f 99/13/6 102/26/6 32/26/6
f 100/14/3 99/13/3 13/13/3
f 101/25/2 100/14/2 14/14/2
f 102/26/1 101/25/1 18/25/1
f 25/3/4 26/1/4 22/30/4
f 104/1/2 103/30/2 21/30/2
f 106/3/3 104/1/3 22/1/3
f 105/2/6 106/3/6 26/3/6
f 103/30/1 105/2/1 25/2/1
f 15/3/4 9/1/4 11/30/4
f 108/1/6 110/30/6 19/30/6
f 107/3/1 108/1/1 11/1/1
f 109/2/2 107/3/2 9/3/2
f 110/30/3 109/2/3 15/2/3
