# Blender 4.5.3 LTS
# www.blender.org
mtllib clockhand_min.mtl
o clock_hands_min
v 0.097822 0.001189 -0.007143
v -0.004021 -0.001470 -0.007282
v 0.098080 -0.000969 -0.003232
v -0.003246 -0.005461 0.006363
v 0.097858 -0.000184 -0.007403
v -0.003985 -0.002843 -0.007542
v -0.003282 -0.004088 0.006623
v 0.098044 0.000404 -0.002971
vn 0.1007 -0.1829 0.9780
vn 0.0259 -0.9821 -0.1863
vn -0.0259 0.9821 0.1863
vn -0.0035 0.1863 -0.9825
vn -0.9983 -0.0351 0.0465
vn 0.9983 0.0351 -0.0465
vt 0.000000 0.000000
s 0
usemtl min_Zeiger
f 8/1/1 4/1/1 3/1/1
f 3/1/2 6/1/2 5/1/2
f 1/1/3 7/1/3 8/1/3
f 5/1/4 2/1/4 1/1/4
f 4/1/5 2/1/5 6/1/5
f 8/1/6 5/1/6 1/1/6
f 8/1/1 7/1/1 4/1/1
f 3/1/2 4/1/2 6/1/2
f 1/1/3 2/1/3 7/1/3
f 5/1/4 6/1/4 2/1/4
f 4/1/5 7/1/5 2/1/5
f 8/1/6 3/1/6 5/1/6
