# Blender 4.5.3 LTS
# www.blender.org
mtllib window_right.mtl
o window_right
v 2.255300 0.005481 2.258679
v 2.260300 0.005481 2.258679
v 2.260300 -0.703488 2.258679
v 2.255300 -0.703488 2.258679
v 2.260300 -0.742875 2.297184
v 2.260300 0.044868 2.297184
v 2.260300 0.005481 0.949508
v 2.260300 0.005481 1.844750
v 2.262800 0.010404 1.849563
v 2.260300 0.005481 0.949508
v 2.255300 -0.703488 0.949508
v 2.255300 0.005481 0.949508
v 2.260300 -0.703488 0.949508
v 2.260300 0.044868 0.911003
v 2.260300 -0.742875 0.911003
v 2.255300 0.005481 2.258679
v 2.260300 0.005481 1.883255
v 2.255300 0.005481 1.883255
v 2.260300 0.005481 2.258679
v 2.260300 0.005481 1.883255
v 2.262800 0.010404 1.878442
v 2.260300 0.005481 2.258679
v 2.260300 0.005481 1.883255
v 2.255300 0.005481 1.883255
v 2.255300 -0.703488 1.883255
v 2.260300 -0.703488 1.883255
v 2.260300 -0.703488 1.883255
v 2.262800 0.010404 1.878442
v 2.262800 -0.708411 1.878442
v 2.260300 0.005481 1.883255
v 2.260300 0.005481 1.844750
v 2.262800 0.010404 1.849563
v 2.262800 -0.708411 1.849563
v 2.260300 -0.703488 1.844750
v 2.260300 0.005481 1.844750
v 2.260300 -0.703488 1.844750
v 2.255300 -0.703488 1.844750
v 2.255300 0.005481 1.844750
v 2.255300 -0.683794 0.968760
v 2.255300 -0.683794 1.825498
v 2.240300 -0.683794 0.968760
v 2.240300 -0.683794 1.825498
v 2.240300 -0.014213 0.968760
v 2.255300 -0.014213 1.825498
v 2.240300 -0.014213 1.825498
v 2.255300 -0.014213 0.968760
v 2.255300 -0.683794 1.902508
v 2.255300 -0.683794 2.239427
v 2.240300 -0.683794 1.902508
v 2.240300 -0.683794 2.239427
v 2.240300 -0.014213 1.902508
v 2.240300 -0.014213 2.239427
v 2.255300 -0.014213 2.239427
v 2.255300 -0.014213 1.902508
v 2.255300 0.005481 2.258679
v 2.255300 -0.703488 2.258679
v 2.255300 -0.683794 2.239427
v 2.255300 -0.014213 2.239427
v 2.255300 -0.683794 2.239427
v 2.255300 -0.014213 2.239427
v 2.240300 -0.683794 2.239427
v 2.240300 -0.014213 2.239427
v 2.255300 -0.683794 1.902508
v 2.255300 -0.703488 1.883255
v 2.255300 0.005481 1.883255
v 2.255300 -0.014213 1.902508
v 2.240300 -0.683794 1.902508
v 2.255300 -0.014213 1.902508
v 2.240300 -0.014213 1.902508
v 2.255300 -0.683794 1.902508
v 2.255300 -0.014213 1.825498
v 2.255300 0.005481 1.844750
v 2.255300 -0.703488 1.844750
v 2.255300 -0.683794 1.825498
v 2.255300 -0.683794 1.825498
v 2.240300 -0.014213 1.825498
v 2.240300 -0.683794 1.825498
v 2.255300 -0.014213 1.825498
v 2.255300 -0.703488 0.949508
v 2.255300 0.005481 0.949508
v 2.255300 -0.683794 0.968760
v 2.255300 -0.014213 0.968760
v 2.240300 -0.683794 0.968760
v 2.255300 -0.683794 0.968760
v 2.255300 -0.014213 0.968760
v 2.240300 -0.014213 0.968760
v 2.320300 0.089179 0.829180
v 2.325978 -0.787185 0.829180
v 2.320300 -0.787185 0.829180
v 2.325977 0.089179 0.829180
v 2.327800 0.089179 0.848432
v 2.327800 -0.787185 0.848432
v 2.327800 0.089179 0.848432
v 2.327800 -0.787185 0.848432
v 2.330300 0.089179 0.886937
v 2.330300 -0.787185 0.850207
v 2.330300 -0.787185 0.886937
v 2.330300 0.089179 0.850207
v 2.330300 0.089179 0.886937
v 2.330300 -0.787185 0.886937
v 2.320300 0.089179 0.911003
v 2.320300 -0.787185 0.911003
v 2.339739 -0.787185 0.888017
v 2.339739 -0.787185 0.909923
v 2.320300 -0.787185 0.911003
v 2.320300 -0.787185 0.829180
v 2.330300 -0.787185 0.850207
v 2.327800 -0.787185 0.848432
v 2.325978 -0.787185 0.829180
v 2.330300 -0.787185 0.886937
v 2.339739 0.089179 0.909923
v 2.339739 0.089179 0.888017
v 2.330300 0.089179 0.886937
v 2.330300 0.089179 0.850207
v 2.327800 0.089179 0.848432
v 2.320300 0.089179 0.829180
v 2.325977 0.089179 0.829180
v 2.320300 0.089179 0.911003
v 2.325977 0.089179 0.829180
v 2.325978 -0.787185 0.829180
v 2.330300 -0.787185 0.850207
v 2.330300 0.089179 0.850207
v 2.339739 0.089179 0.888017
v 2.339739 -0.787185 0.888017
v 2.339739 -0.787185 0.909923
v 2.339739 0.089179 0.909923
v 2.329050 0.089179 0.911003
v 2.329050 0.089179 0.911003
v 2.329050 0.089179 2.340503
v 2.320300 0.089179 2.340503
v 2.320300 0.089179 0.911003
v 2.324795 -0.742875 2.297184
v 2.324795 -0.742875 0.911003
v 2.324795 0.044868 0.911003
v 2.324795 0.044868 2.297184
v 2.328449 0.049100 0.911003
v 2.328449 -0.747107 0.911003
v 2.320300 -0.742875 0.911003
v 2.320300 0.044868 0.911003
v 2.260300 0.044868 0.911003
v 2.260300 -0.742875 0.911003
v 2.260300 0.044868 2.297184
v 2.260300 -0.742875 2.297184
v 2.324795 0.044868 2.297184
v 2.324795 -0.742875 2.297184
v 2.329050 0.089179 2.340503
v 2.329050 -0.787185 2.340503
v 2.320300 0.089179 2.340503
v 2.320300 -0.787185 2.340503
v 2.329050 0.089179 2.340503
v 2.324795 -0.742875 0.911003
v 2.320300 -0.742875 0.911003
v 2.324795 -0.742875 2.297184
v 2.260300 -0.742875 0.911003
v 2.260300 -0.742875 2.297184
v 2.329050 -0.787185 0.911003
v 2.329050 -0.787185 2.340503
v 2.320300 -0.787185 0.911003
v 2.320300 -0.787185 2.340503
v 2.329050 -0.787185 2.340503
v 2.329050 -0.787185 0.911003
v 2.260300 0.044868 0.911003
v 2.320300 0.044868 0.911003
v 2.260300 0.044868 2.297184
v 2.324795 0.044868 2.297184
v 2.324795 0.044868 0.911003
v 2.255300 0.005481 1.844750
v 2.260300 0.005481 0.949508
v 2.255300 0.005481 0.949508
v 2.260300 0.005481 1.844750
v 2.262800 0.010404 1.878442
v 2.262800 0.010404 1.849563
v 2.255300 -0.703488 1.844750
v 2.260300 -0.703488 0.949508
v 2.260300 -0.703488 1.844750
v 2.255300 -0.703488 0.949508
v 2.255300 -0.703488 1.883255
v 2.260300 -0.703488 2.258679
v 2.255300 -0.703488 2.258679
v 2.260300 -0.703488 1.883255
v 2.260300 -0.703488 2.258679
v 2.260300 -0.703488 1.883255
v 2.262800 -0.708411 1.878442
v 2.262800 -0.708411 1.849563
v 2.260300 -0.703488 0.949508
v 2.260300 -0.703488 1.844750
v 2.262800 -0.708411 1.878442
v 2.262800 -0.708411 1.849563
v 2.262800 -0.708411 2.263492
v 2.260300 -0.703488 2.258679
v 2.262800 0.010404 2.263492
v 2.260300 0.005481 2.258679
v 2.262800 0.039945 2.292371
v 2.262800 -0.737951 2.292371
v 2.262800 0.010404 0.944695
v 2.262800 0.010404 2.263492
v 2.260300 -0.742875 0.911003
v 2.262800 -0.737951 2.292371
v 2.262800 -0.737951 0.915816
v 2.260300 -0.742875 2.297184
v 2.262800 0.010404 0.944695
v 2.260300 -0.703488 0.949508
v 2.262800 -0.708411 0.944695
v 2.260300 0.005481 0.949508
v 2.262800 0.010404 0.944695
v 2.262800 -0.737951 0.915816
v 2.262800 0.039945 0.915816
v 2.262800 0.039945 0.915816
v 2.262800 0.039945 2.292371
v 2.260300 0.044868 0.911003
v 2.260300 0.044868 2.297184
v 2.262800 0.010404 2.263492
v 2.327800 0.089179 0.832689
v 2.327800 -0.787185 0.832689
v 2.329378 -0.787185 0.848432
v 2.329378 0.089179 0.848432
v 2.338436 0.089179 0.886937
v 2.338436 -0.787185 0.886937
v 2.338436 -0.787185 0.911003
v 2.338436 0.089179 0.911003
v 2.338436 -0.787185 0.886937
v 2.340300 -0.787185 0.890528
v 2.340300 -0.787185 0.907412
v 2.338436 -0.787185 0.911003
v 2.327800 -0.787185 0.832689
v 2.329378 -0.787185 0.848432
v 2.338436 0.089179 0.911003
v 2.340300 0.089179 0.907412
v 2.340300 0.089179 0.890528
v 2.338436 0.089179 0.886937
v 2.329378 0.089179 0.848432
v 2.327800 0.089179 0.832689
v 2.327800 0.089179 0.832689
v 2.327800 -0.787185 0.832689
v 2.329378 -0.787185 0.848432
v 2.329378 0.089179 0.848432
v 2.340300 -0.787185 0.890528
v 2.340300 0.089179 0.890528
v 2.338436 -0.787185 0.911003
v 2.339739 -0.787185 0.909923
v 2.338436 0.089179 0.911003
v 2.339739 0.089179 0.909923
v 2.338436 0.089179 0.886937
v 2.338436 -0.787185 0.886937
v 2.339739 -0.787185 0.888017
v 2.339739 0.089179 0.888017
v 2.340300 0.089179 0.907412
v 2.340300 -0.787185 0.907412
v 2.329050 0.084255 0.911003
v 2.329050 0.059638 0.911003
v 2.327800 0.079332 0.911003
v 2.327800 0.064562 0.911003
v 2.324795 0.044868 2.297184
v 2.324795 -0.742875 2.297184
v 2.326901 -0.744060 0.911003
v 2.326901 -0.744060 2.298343
v 2.326901 0.046054 0.911003
v 2.326901 0.046054 2.298343
v 2.329050 0.053250 0.911003
v 2.326901 -0.744060 2.298343
v 2.328449 -0.747107 2.301322
v 2.328449 0.049100 2.301322
v 2.326901 0.046054 2.298343
v 2.329050 0.053250 2.305378
v 2.329050 0.059638 2.311624
v 2.327800 0.064562 2.316437
v 2.327800 0.079332 2.330876
v 2.329050 0.084255 2.335689
v 2.329050 -0.757645 0.911003
v 2.329050 -0.751256 0.911003
v 2.329050 -0.751256 2.305378
v 2.329050 -0.757645 2.311624
v 2.329050 -0.782262 0.911003
v 2.329050 -0.782262 2.335689
v 2.327800 -0.762568 2.316437
v 2.327800 -0.777339 0.911003
v 2.327800 -0.777339 2.330876
v 2.327800 -0.762568 0.911003
v 2.262800 0.039945 2.292371
v 2.262800 0.039945 0.915816
v 2.262800 -0.708411 2.263492
v 2.262800 -0.708411 0.944695
v 2.262800 -0.708411 0.944695
v 2.262800 -0.737951 0.915816
v 2.262800 -0.737951 2.292371
v 2.262800 -0.708411 2.263492
vn -0.0000 -0.0000 -1.0000
vn -0.0000 1.0000 -0.0000
vn 0.2658 0.9640 -0.0000
vn 0.8916 0.4528 -0.0000
vn -0.0000 -1.0000 -0.0000
vn -0.0000 -0.0000 1.0000
vn 0.2603 -0.0000 -0.9655
vn 0.6387 -0.0000 -0.7695
vn 0.6385 -0.0000 -0.7696
vn 0.3691 -0.0000 -0.9294
vn 0.6386 -0.0000 0.7695
vn 0.6382 -0.0000 0.7699
vn 0.3690 -0.0000 0.9294
vn 0.3691 -0.0000 0.9294
vn 0.8875 -0.0000 -0.4609
vn 0.8874 -0.0000 -0.4609
vn 1.0000 -0.0000 -0.0000
vn 0.8874 -0.0000 0.4609
vn 0.8916 -0.4528 -0.0000
vn 0.2658 -0.9640 -0.0000
vn 0.9929 0.1190 -0.0000
vn 0.9963 0.0597 -0.0611
vn 0.9963 -0.0597 -0.0611
vn 0.9963 -0.0597 0.0611
vn 0.9963 0.0597 0.0611
vn 0.9987 0.0355 -0.0363
vn 0.9987 -0.0355 -0.0363
vn 0.9779 0.1461 -0.1494
vn 0.9779 -0.1461 -0.1494
vn 0.7497 -0.0000 -0.6618
vn 0.2659 0.9640 -0.0000
vn 0.7570 0.6534 -0.0000
vn 0.9581 0.2863 -0.0000
vn 0.9975 0.0709 -0.0000
vn 0.9929 -0.1190 -0.0000
vn 0.2659 -0.9640 -0.0000
vn 0.7570 -0.6534 -0.0000
vn 0.7571 -0.6534 -0.0000
vn 0.9581 -0.2863 -0.0000
vn 0.9975 -0.0709 -0.0000
vn 0.9758 -0.0000 -0.2185
vn 0.9759 -0.0000 -0.2183
vn 0.9943 -0.0000 -0.1065
vn 0.9943 -0.0000 0.1065
vn 0.9758 -0.0000 0.2185
vn 0.9759 -0.0000 0.2183
vt 0.000000 1.000000
s 0
usemtl Mat.001
f 2/1/1 3/1/1 4/1/1
f 1/1/1 2/1/1 4/1/1
s 1
f 154/1/2 155/1/2 153/1/3
f 152/1/2 154/1/2 153/1/3
f 151/1/3 152/1/2 153/1/3
s 0
f 282/1/4 185/1/4 186/1/4
f 184/1/4 282/1/4 186/1/4
f 281/1/4 183/1/4 182/1/4
f 181/1/4 281/1/4 182/1/4
f 179/1/2 178/1/2 180/1/2
f 177/1/2 179/1/2 180/1/2
f 175/1/2 174/1/2 176/1/2
f 173/1/2 175/1/2 176/1/2
f 169/1/5 168/1/5 170/1/5
f 167/1/5 169/1/5 170/1/5
f 161/1/5 160/1/5 159/1/5
f 158/1/5 161/1/5 159/1/5
f 148/1/6 149/1/6 147/1/6
f 146/1/6 148/1/6 147/1/6
s 1
f 144/1/7 145/1/7 143/1/1
f 142/1/1 144/1/7 143/1/1
s 0
f 139/1/6 140/1/6 141/1/6
f 138/1/6 139/1/6 141/1/6
f 131/1/2 130/1/2 129/1/2
f 128/1/2 131/1/2 129/1/2
s 1
f 246/1/8 245/1/9 244/1/10
f 243/1/10 246/1/8 244/1/10
f 240/1/11 242/1/12 241/1/13
f 239/1/14 240/1/11 241/1/13
s 0
f 235/1/15 236/1/15 122/1/15
f 121/1/16 235/1/16 122/1/16
f 233/1/16 234/1/16 120/1/16
f 119/1/16 233/1/16 120/1/16
f 107/1/5 110/1/5 108/1/5
f 226/1/5 107/1/5 108/1/5
f 225/1/5 108/1/5 109/1/5
f 110/1/5 109/1/5 108/1/5
f 106/1/5 109/1/5 110/1/5
f 105/1/5 106/1/5 110/1/5
f 224/1/5 105/1/5 110/1/5
f 104/1/5 224/1/5 110/1/5
f 223/1/5 104/1/5 110/1/5
f 222/1/5 223/1/5 110/1/5
f 103/1/5 222/1/5 110/1/5
f 221/1/5 103/1/5 110/1/5
s 1
f 102/1/6 219/1/14 220/1/14
f 101/1/6 102/1/6 220/1/14
f 217/1/10 218/1/10 100/1/1
f 99/1/1 217/1/10 100/1/1
s 0
f 97/1/17 96/1/17 98/1/17
f 95/1/17 97/1/17 98/1/17
f 216/1/1 215/1/1 94/1/1
f 93/1/1 216/1/1 94/1/1
f 92/1/17 214/1/17 213/1/17
f 91/1/17 92/1/17 213/1/17
f 90/1/1 88/1/1 89/1/1
f 87/1/1 90/1/1 89/1/1
f 84/1/6 85/1/6 86/1/6
f 83/1/6 84/1/6 86/1/6
f 77/1/1 76/1/1 78/1/1
f 75/1/1 77/1/1 78/1/1
f 70/1/6 68/1/6 69/1/6
f 67/1/6 70/1/6 69/1/6
f 61/1/1 62/1/1 60/1/1
f 59/1/1 61/1/1 60/1/1
f 54/1/5 53/1/5 52/1/5
f 51/1/5 54/1/5 52/1/5
f 49/1/2 50/1/2 48/1/2
f 47/1/2 49/1/2 48/1/2
f 46/1/5 44/1/5 45/1/5
f 43/1/5 46/1/5 45/1/5
f 41/1/2 42/1/2 40/1/2
f 39/1/2 41/1/2 40/1/2
f 73/1/17 79/1/17 74/1/17
f 73/1/17 74/1/17 71/1/17
f 72/1/17 73/1/17 71/1/17
f 72/1/17 71/1/17 82/1/17
f 80/1/17 72/1/17 82/1/17
f 80/1/17 82/1/17 81/1/17
f 79/1/17 80/1/17 81/1/17
f 79/1/17 81/1/17 74/1/17
f 36/1/1 37/1/1 38/1/1
f 35/1/1 36/1/1 38/1/1
f 32/1/16 33/1/16 34/1/16
f 31/1/16 32/1/16 34/1/16
f 29/1/18 28/1/18 30/1/18
f 27/1/18 29/1/18 30/1/18
f 24/1/6 25/1/6 26/1/6
f 23/1/6 24/1/6 26/1/6
f 21/1/19 212/1/19 22/1/19
f 20/1/19 21/1/19 22/1/19
f 210/1/4 211/1/4 209/1/4
f 208/1/4 210/1/4 209/1/4
f 18/1/5 17/1/5 19/1/5
f 16/1/5 18/1/5 19/1/5
f 207/1/16 206/1/16 15/1/16
f 14/1/16 207/1/16 15/1/16
f 203/1/18 205/1/18 204/1/18
f 202/1/18 203/1/18 204/1/18
f 12/1/6 11/1/6 13/1/6
f 10/1/6 12/1/6 13/1/6
f 199/1/19 198/1/19 200/1/19
f 197/1/19 199/1/19 200/1/19
f 195/1/19 9/1/19 8/1/19
f 7/1/19 195/1/19 8/1/19
f 6/1/18 5/1/18 194/1/18
f 193/1/18 6/1/18 194/1/18
f 190/1/16 192/1/16 191/1/16
f 189/1/16 190/1/16 191/1/16
s 1
f 166/1/20 165/1/20 164/1/5
f 163/1/5 166/1/20 164/1/5
s 0
f 162/1/5 163/1/5 164/1/5
s 1
f 273/1/21 276/1/21 274/1/22
f 276/1/21 277/1/22 274/1/22
f 268/1/23 274/1/22 277/1/22
f 267/1/23 268/1/23 277/1/22
f 267/1/23 277/1/22 275/1/24
f 266/1/25 267/1/23 275/1/24
f 266/1/25 275/1/24 272/1/24
f 265/1/25 266/1/25 272/1/24
f 265/1/25 272/1/24 271/1/26
f 264/1/27 265/1/25 271/1/26
f 271/1/26 261/1/28 264/1/27
f 261/1/28 262/1/29 264/1/27
f 262/1/29 261/1/28 260/1/30
f 263/1/30 262/1/29 260/1/30
f 263/1/30 260/1/30 254/1/7
f 253/1/7 263/1/30 254/1/7
f 132/1/31 256/1/32 133/1/31
f 256/1/32 255/1/32 133/1/31
f 256/1/32 261/1/28 255/1/32
f 261/1/28 137/1/33 255/1/32
f 137/1/33 261/1/28 271/1/26
f 270/1/34 137/1/33 271/1/26
f 270/1/34 271/1/26 272/1/24
f 269/1/35 270/1/34 272/1/24
f 269/1/35 272/1/24 275/1/24
f 278/1/35 269/1/35 275/1/24
f 278/1/35 275/1/24 277/1/22
f 276/1/21 278/1/35 277/1/22
f 134/1/36 257/1/37 135/1/36
f 257/1/37 258/1/38 135/1/36
f 257/1/37 136/1/39 258/1/38
f 136/1/39 262/1/29 258/1/38
f 262/1/29 136/1/39 259/1/40
f 264/1/27 262/1/29 259/1/40
f 259/1/40 250/1/21 264/1/27
f 250/1/21 265/1/25 264/1/27
f 250/1/21 252/1/21 265/1/25
f 252/1/21 266/1/25 265/1/25
f 252/1/21 251/1/35 266/1/25
f 251/1/35 267/1/23 266/1/25
f 251/1/35 249/1/35 267/1/23
f 249/1/35 268/1/23 267/1/23
f 249/1/35 127/1/17 268/1/23
f 127/1/17 150/1/17 268/1/23
f 268/1/23 150/1/17 274/1/22
f 150/1/17 157/1/17 274/1/22
f 273/1/21 274/1/22 157/1/17
f 156/1/17 273/1/21 157/1/17
s 0
f 280/1/17 279/1/17 172/1/17
f 201/1/17 280/1/17 172/1/17
f 280/1/17 201/1/17 283/1/17
f 284/1/17 280/1/17 283/1/17
f 188/1/17 284/1/17 283/1/17
f 284/1/17 188/1/17 187/1/17
f 188/1/17 172/1/17 187/1/17
f 171/1/17 187/1/17 172/1/17
f 279/1/17 171/1/17 172/1/17
f 171/1/17 279/1/17 196/1/17
f 279/1/17 285/1/17 196/1/17
f 285/1/17 286/1/17 196/1/17
f 286/1/17 285/1/17 187/1/17
f 285/1/17 284/1/17 187/1/17
f 55/1/17 58/1/17 66/1/17
f 55/1/17 56/1/17 58/1/17
f 56/1/17 57/1/17 58/1/17
f 56/1/17 64/1/17 57/1/17
f 64/1/17 63/1/17 57/1/17
f 64/1/17 65/1/17 63/1/17
f 65/1/17 66/1/17 63/1/17
f 65/1/17 55/1/17 66/1/17
f 117/1/2 116/1/2 118/1/2
f 232/1/2 117/1/2 118/1/2
f 115/1/2 232/1/2 118/1/2
f 231/1/2 115/1/2 118/1/2
f 114/1/2 231/1/2 118/1/2
f 113/1/2 114/1/2 118/1/2
f 230/1/2 113/1/2 118/1/2
f 112/1/2 230/1/2 118/1/2
f 229/1/2 112/1/2 118/1/2
f 228/1/2 229/1/2 118/1/2
f 111/1/2 228/1/2 118/1/2
f 227/1/2 111/1/2 118/1/2
s 1
f 124/1/41 123/1/42 238/1/43
f 237/1/43 124/1/41 238/1/43
f 248/1/44 237/1/43 238/1/43
f 247/1/44 248/1/44 238/1/43
f 247/1/44 126/1/45 248/1/44
f 126/1/45 125/1/46 248/1/44
